#!OML:ASF I:\Actors\actors\Patient Classification 2\Patient 1\Session 1\actor1.ASF
:FULLY-SPECIFIED
:DEGREES
352
root -0.814805 18.7071 5.09399 2.22378 -4.48351 -2.85542
lowerback 14.45 0.309039 -0.741426
upperback 5.08593 0.283051 -0.253222
thorax -2.73459 0.132466 0.107856
lowerneck 0.846732 2.21548 -4.13071
upperneck 6.33951 2.91385 1.418
head 1.75269 1.3826 1.17765
rclavicle 1.68967e-014 -2.74323e-014
rhumerus -55.184 -3.42104 -79.9497
rradius 56.7677
rwrist 8.90666
rhand 2.51274 -41.3612
rfingers 7.12502
rthumb 27.9948 -69.2934
lclavicle 1.68967e-014 -2.74323e-014
lhumerus 12.3148 -30.3149 42.3876
lradius 133.459
lwrist 50.6193
lhand -23.192 -29.594
lfingers 7.12502
lthumb 3.25772 0.360877
rfemur 3.10918 4.24484 17.172
rtibia -1.19271e-014
rfoot -13.6238 -11.165
rtoes -8.63394
lfemur -9.01398 -0.390425 -10.5194
ltibia 24.742
lfoot -20.3825 12.2059
ltoes -56.1522
353
root -0.813889 18.7065 5.07766 2.3079 -4.5854 -2.83105
lowerback 14.6267 0.288985 -0.7884
upperback 5.1091 0.247516 -0.265309
thorax -2.8048 0.114615 0.126982
lowerneck 1.09762 2.34039 -3.97859
upperneck 6.08637 3.07528 1.25014
head 1.62656 1.4655 1.09128
rclavicle 5.1684e-015 -2.10712e-014
rhumerus -55.205 -3.11398 -80.2233
rradius 57.1654
rwrist 8.97057
rhand 2.16961 -40.8146
rfingers 7.12502
rthumb 27.6668 -68.7998
lclavicle 5.1684e-015 -2.10712e-014
lhumerus 12.2433 -29.8886 42.1275
lradius 133.59
lwrist 49.8228
lhand -23.0656 -30.0417
lfingers 7.12502
lthumb 3.37977 -0.0887233
rfemur 2.92893 4.34149 17.133
rtibia 7.15625e-015
rfoot -13.5459 -11.2367
rtoes -8.66099
lfemur -9.17128 -0.30573 -10.5439
ltibia 24.7874
lfoot -20.3846 12.2401
ltoes -56.184
354
root -0.812739 18.7056 5.06365 2.36384 -4.62935 -2.78281
lowerback 14.8058 0.252425 -0.832941
upperback 5.14613 0.189038 -0.317415
thorax -2.86123 0.0856747 0.106934
lowerneck 1.43913 2.46835 -3.65163
upperneck 5.61293 3.24186 0.953651
head 1.42011 1.55515 0.930198
rclavicle 9.34288e-015 -1.63003e-014
rhumerus -55.1594 -2.86262 -80.5183
rradius 57.5945
rwrist 8.70757
rhand 2.00125 -40.5077
rfingers 7.12502
rthumb 27.5058 -68.5187
lclavicle 9.34288e-015 -1.63003e-014
lhumerus 12.1896 -29.4346 41.7929
lradius 133.718
lwrist 49.3021
lhand -23.0568 -30.2289
lfingers 7.12502
lthumb 3.38828 -0.276073
rfemur 2.80173 4.3805 17.0708
rtibia -1.59028e-015
rfoot -13.4681 -11.2961
rtoes -8.7988
lfemur -9.31176 -0.177106 -10.5891
ltibia 24.8398
lfoot -20.357 12.1679
ltoes -56.1781
355
root -0.811422 18.7053 5.0525 2.38841 -4.62089 -2.76747
lowerback 15.0316 0.309933 -0.692249
upperback 5.28639 0.282103 -0.327073
thorax -2.83462 0.131987 0.000969428
lowerneck 1.23925 2.44094 -3.62987
upperneck 5.2684 3.2186 0.809859
head 1.34804 1.54624 0.880203
rclavicle -6.36111e-015 1.07344e-014
rhumerus -54.9118 -3.021 -80.5368
rradius 57.9625
rwrist 8.46657
rhand 1.76957 -40.1694
rfingers 7.12502
rthumb 27.2842 -68.2155
lclavicle -6.36111e-015 1.07344e-014
lhumerus 12.5903 -29.0629 41.521
lradius 133.799
lwrist 48.9453
lhand -23.0684 -30.5114
lfingers 7.12502
lthumb 3.37704 -0.55841
rfemur 2.7385 4.37014 17.0452
rtibia 1.03368e-014
rfoot -13.4438 -11.3202
rtoes -8.7134
lfemur -9.41319 -0.0561324 -10.6015
ltibia 24.8887
lfoot -20.2786 12.0868
ltoes -56.2206
356
root -0.80947 18.706 5.04353 2.43383 -4.57548 -2.7781
lowerback 15.2137 0.346688 -0.562439
upperback 5.37595 0.349598 -0.275001
thorax -2.83759 0.16554 -0.0301299
lowerneck 0.964344 2.42825 -3.81172
upperneck 5.12569 3.21468 0.779396
head 1.34823 1.54261 0.90434
rclavicle -5.36719e-015 7.95139e-016
rhumerus -54.7381 -3.09194 -80.443
rradius 58.3477
rwrist 8.24827
rhand 1.722 -40.0294
rfingers 7.12502
rthumb 27.2387 -68.0826
lclavicle -5.36719e-015 7.95139e-016
lhumerus 12.928 -28.7068 41.3529
lradius 133.857
lwrist 48.6619
lhand -23.012 -30.3778
lfingers 7.12502
lthumb 3.43151 -0.425642
rfemur 2.6719 4.32297 17.0416
rtibia -8.74653e-015
rfoot -13.4452 -11.3114
rtoes -8.26783
lfemur -9.53188 -0.0294794 -10.5937
ltibia 24.9327
lfoot -20.2391 12.0579
ltoes -56.2575
357
root -0.807437 18.7062 5.03706 2.4797 -4.51019 -2.74436
lowerback 15.3412 0.332302 -0.529077
upperback 5.40363 0.335691 -0.248506
thorax -2.87641 0.158679 -0.0194243
lowerneck 0.883823 2.47928 -3.85528
upperneck 4.97108 3.28906 0.689522
head 1.31209 1.57963 0.883287
rclavicle -2.98177e-015 -2.38542e-015
rhumerus -54.6792 -2.95748 -80.4181
rradius 58.8169
rwrist 7.77148
rhand 1.93107 -40.345
rfingers 7.12502
rthumb 27.4387 -68.3666
lclavicle -2.98177e-015 -2.38542e-015
lhumerus 13.137 -28.295 41.1207
lradius 133.889
lwrist 48.3426
lhand -23.3259 -29.8449
lfingers 7.12502
lthumb 3.12841 0.111935
rfemur 2.60531 4.25381 16.9912
rtibia 5.56597e-015
rfoot -13.3993 -11.3283
rtoes -8.13903
lfemur -9.65218 -0.0691491 -10.6426
ltibia 24.9788
lfoot -20.2251 12.0701
ltoes -56.2738
358
root -0.806172 18.7066 5.03233 2.51732 -4.42337 -2.70084
lowerback 15.4553 0.30653 -0.496869
upperback 5.41045 0.305352 -0.260693
thorax -2.92968 0.144057 -0.0456463
lowerneck 0.883947 2.54014 -3.73207
upperneck 4.74622 3.37382 0.540823
head 1.24299 1.62482 0.813439
rclavicle 3.37934e-015 -1.19271e-015
rhumerus -54.625 -2.86293 -80.4205
rradius 59.2622
rwrist 7.06646
rhand 2.27464 -40.7282
rfingers 7.12502
rthumb 27.7672 -68.6973
lclavicle 3.37934e-015 -1.19271e-015
lhumerus 13.311 -27.9334 40.8507
lradius 133.882
lwrist 47.7941
lhand -23.8152 -29.7853
lfingers 7.12502
lthumb 2.6558 0.177926
rfemur 2.55098 4.16307 16.9335
rtibia 2.38542e-015
rfoot -13.3584 -11.345
rtoes -8.23521
lfemur -9.76006 -0.0723019 -10.6948
ltibia 25.0193
lfoot -20.1674 12.0448
ltoes -56.3433
